<svg xmlns="http://www.w3.org/2000/svg" xmlns:xlink="http://www.w3.org/1999/xlink" width="100" zoomAndPan="magnify" viewBox="0 0 75 149.999998" height="200" preserveAspectRatio="xMidYMid meet" version="1.0"><rect x="-7.5" width="90" fill="#ffffff" y="-15" height="179.999997" fill-opacity="1"/><rect x="-7.5" width="90" fill="#ffffff" y="-15" height="179.999997" fill-opacity="1"/><rect x="-7.5" width="90" fill="#ffffff" y="-15" height="179.999997" fill-opacity="1"/><path fill="#fff3e7" d="M -20.402344 17.976562 L 84.554688 -8.460938 L 95.117188 129.019531 L 9.960938 166.035156 Z M -20.402344 17.976562 " fill-opacity="1" fill-rule="nonzero"/><path fill="#183d72" d="M 72.230469 64.5625 C 72.25 67.277344 71.851562 69.929688 71.035156 72.523438 C 70.222656 75.113281 69.027344 77.515625 67.453125 79.726562 C 65.953125 81.933594 64.128906 83.824219 61.980469 85.398438 C 59.832031 86.976562 57.480469 88.152344 54.929688 88.921875 C 52.226562 89.878906 48.253906 91.230469 43.003906 92.980469 C 42.921875 93.253906 42.882812 93.53125 42.886719 93.816406 C 42.886719 96.046875 42.984375 99.433594 43.183594 103.96875 C 43.378906 108.507812 43.480469 111.890625 43.484375 114.121094 C 43.484375 117.144531 42.726562 118.859375 41.214844 119.253906 C 40.183594 119.574219 38.671875 119.710938 36.683594 119.671875 C 35.246094 119.605469 33.816406 119.667969 32.390625 119.851562 C 31.914062 119.929688 30.402344 120.328125 27.859375 121.046875 C 25.949219 121.605469 24.480469 121.882812 23.449219 121.882812 C 22.492188 121.882812 21.101562 120.726562 19.273438 118.421875 C 17.679688 116.429688 16.609375 114.796875 16.054688 113.523438 C 15.097656 111.292969 13.945312 99.511719 12.59375 78.175781 C 11.320312 58.667969 10.683594 45.613281 10.683594 39.003906 C 10.683594 37.410156 10.882812 36.335938 11.28125 35.78125 C 12.238281 34.585938 15.972656 33.550781 22.492188 32.675781 C 27.660156 32.039062 31.835938 31.71875 35.015625 31.71875 C 46.863281 31.71875 55.808594 34.027344 61.851562 38.644531 C 68.757812 43.988281 72.214844 52.628906 72.230469 64.5625 Z M 67.695312 55.601562 C 67.695312 50.589844 65.707031 46.328125 61.730469 42.828125 C 58.472656 39.800781 54.179688 37.570312 48.851562 36.132812 C 44.867188 35.113281 42.359375 34.605469 41.324219 34.605469 C 28.683594 34.605469 19.460938 35.558594 13.652344 37.472656 C 13.652344 58.808594 15.402344 83.371094 18.902344 111.152344 C 24.152344 110.199219 29.480469 109.480469 34.882812 109.003906 L 34.882812 108.167969 C 34.882812 106.417969 34.765625 103.789062 34.527344 100.285156 C 34.289062 96.78125 34.167969 94.15625 34.167969 92.40625 C 34.105469 91.226562 33.90625 90.070312 33.570312 88.941406 C 33.242188 87.847656 33.046875 86.734375 32.976562 85.59375 C 32.976562 84.320312 34.207031 83.484375 36.671875 83.085938 L 41.679688 82.609375 C 45.65625 81.90625 49.511719 80.789062 53.25 79.265625 C 56.992188 77.75 60.328125 74.484375 63.265625 69.46875 C 66.203125 64.453125 67.675781 59.835938 67.679688 55.617188 Z M 38.699219 116.558594 C 36.710938 113.585938 35.640625 112.097656 35.480469 112.097656 C 34.363281 112.097656 29.15625 112.761719 19.855469 114.089844 L 23.792969 118.664062 C 24.828125 118.664062 27.011719 118.292969 30.351562 117.550781 C 33.6875 116.804688 36.472656 116.476562 38.699219 116.558594 Z M 52.296875 55.738281 C 52.296875 59.957031 49.988281 63.5 45.378906 66.363281 C 41.414062 68.746094 37.121094 70.019531 32.5 70.1875 L 31.066406 68.875 L 31.066406 65.167969 C 31.066406 63.417969 30.828125 60.773438 30.351562 57.226562 C 29.875 53.683594 29.632812 51.035156 29.632812 49.285156 C 29.632812 47.695312 31.066406 46.742188 33.929688 46.417969 C 34.484375 46.339844 36.632812 46.300781 40.371094 46.300781 C 48.320312 46.300781 52.296875 49.449219 52.296875 55.738281 Z M 49.429688 53.46875 C 48.945312 52.191406 47.914062 51.117188 46.335938 50.242188 C 44.894531 49.402344 43.339844 48.972656 41.675781 48.945312 C 40.378906 48.945312 38.113281 49.304688 34.882812 50.019531 C 37.710938 52.808594 39.085938 54.203125 39.003906 54.199219 C 39.589844 54.144531 40.117188 53.945312 40.597656 53.601562 C 41.078125 53.523438 42.128906 53.402344 43.746094 53.246094 C 44.792969 53.109375 45.84375 53.027344 46.902344 53.003906 C 47.773438 53 48.617188 53.152344 49.433594 53.46875 Z M 65.664062 76.992188 L 62.917969 76.753906 L 61.488281 76.992188 C 58.03125 79.644531 54.253906 81.714844 50.160156 83.203125 C 47.773438 84 43.636719 85.035156 37.746094 86.308594 C 39.578125 88.140625 40.8125 89.65625 41.445312 90.847656 C 45.902344 89.253906 50.3125 87.699219 54.683594 86.1875 C 56.976562 85.316406 59.0625 84.09375 60.941406 82.515625 C 62.824219 80.9375 64.394531 79.097656 65.652344 76.988281 Z M 49.429688 57.410156 L 47.402344 55.976562 C 45.8125 56.054688 43.386719 56.015625 40.128906 55.855469 C 39.851562 56.75 39.730469 57.664062 39.765625 58.601562 C 39.785156 59.738281 39.867188 60.875 40.003906 62.003906 C 40.160156 63.480469 40.238281 64.617188 40.238281 65.410156 C 46.371094 63.023438 49.433594 60.355469 49.433594 57.410156 Z M 49.429688 57.410156 " fill-opacity="1" fill-rule="nonzero"/></svg>